<?xml version="1.0" encoding="utf-8"?>
<!-- Generator: Adobe Illustrator 16.0.0, SVG Export Plug-In . SVG Version: 6.00 Build 0)  -->
<!DOCTYPE svg PUBLIC "-//W3C//DTD SVG 1.1//EN" "http://www.w3.org/Graphics/SVG/1.1/DTD/svg11.dtd">
<svg version="1.1" id="Layer_1" xmlns="http://www.w3.org/2000/svg" xmlns:xlink="http://www.w3.org/1999/xlink" x="0px" y="0px"
	 width="450px" height="480px" viewBox="-216 -231 450 480" enable-background="new -216 -231 450 480" xml:space="preserve">
<g>
	<g>
		<path fill="#EEEEEE" d="M-192-97.412c0.352-6.106,3.568-11.679,8.698-15.012L-0.684-217.807c5.468-2.747,11.926-2.747,17.369,0
			l182.617,105.384c5.13,3.333,8.358,8.906,8.698,15.012v210.728c-0.34,6.119-3.568,11.691-8.698,15.077L16.686,233.699
			c-5.469,2.786-11.927,2.786-17.369,0l-182.618-105.306c-5.13-3.386-8.346-8.958-8.698-15.077V-97.412z"/>
		<path fill="#E0E0E0" d="M199.225-112.476L16.633-217.885c-2.564-1.328-5.364-2.057-8.268-2.057v455.829
			c2.904,0,5.704-0.677,8.293-2.031l182.566-105.384c5.183-3.333,8.386-8.905,8.749-15.024V-97.463
			C207.558-103.596,204.329-109.143,199.225-112.476z"/>
	</g>
	<g>
		<path fill="#616161" d="M-10.358-84.353v207.954H-114.83c-9.492,0-17.174-7.707-17.174-17.212V-67.179
			c0-9.492,7.682-17.2,17.174-17.2h104.472V-84.353z"/>
		<polygon fill="#757575" points="-10.358,-84.353 -10.358,123.602 -104.192,123.602 -45.902,-84.353 		"/>
		<path fill="#525452" d="M-64.521,102.405c2.903,0,5.26,2.344,5.26,5.261c0,2.916-2.356,5.26-5.26,5.26
			c-2.891,0-5.248-2.344-5.248-5.26C-69.768,104.749-67.411,102.405-64.521,102.405z"/>
		<rect x="-132.003" y="-51.568" fill="#29B6F6" width="121.646" height="141.579"/>
		<polygon fill="#4FC3F7" points="-10.358,-51.568 -10.358,90.011 -94.779,90.011 -55.107,-51.568 		"/>
		<polygon fill="#B3E5FC" points="134.594,-105.224 134.594,-142.851 -12.167,-142.851 -12.167,-30.424 -12.167,-10.139 
			-12.167,12.425 -63.583,12.425 -12.167,42.982 -12.167,160.268 134.594,160.268 134.594,-84.235 		"/>
		<g>
			<rect x="5.292" y="63.606" fill="#61BCE0" width="111.829" height="21.04"/>
			<rect x="5.292" y="-78.559" fill="#61BCE0" width="111.829" height="41.729"/>
			<polyline fill="#61BCE0" points="47.217,103.552 117.121,103.552 117.121,145.319 5.292,145.319 5.292,103.552 28.676,103.552 
							"/>
			<polyline fill="#61BCE0" points="104.543,-15.815 117.121,-15.815 117.121,42.396 5.292,42.396 5.292,-15.815 85.013,-15.815 			
				"/>
		</g>
		<rect x="-12.167" y="-142.851" fill="#F94B54" width="146.813" height="38.526"/>
		<path fill="#F9C573" d="M6.334-128.503c2.904,0,5.247,2.356,5.247,5.247c0,2.903-2.343,5.26-5.247,5.26
			c-2.903,0-5.247-2.356-5.247-5.26C1.087-126.146,3.431-128.503,6.334-128.503z"/>
		<path fill="#61BCE0" d="M40.251-128.503c2.904,0,5.26,2.356,5.26,5.247c0,2.903-2.355,5.26-5.26,5.26
			c-2.903,0-5.247-2.356-5.247-5.26C35.004-126.146,37.348-128.503,40.251-128.503z"/>
		<path fill="#FFFFFF" d="M23.299-128.503c2.891,0,5.247,2.356,5.247,5.247c0,2.903-2.356,5.26-5.247,5.26
			c-2.902,0-5.26-2.356-5.26-5.26C18.039-126.146,20.396-128.503,23.299-128.503z"/>
		<rect x="-12.167" y="-107.814" fill="#61BCE0" width="146.813" height="7.018"/>
		<g>
			<rect x="5.292" y="58.659" fill="#BDBDBD" width="111.829" height="21.065"/>
			<rect x="5.292" y="-83.441" fill="#BDBDBD" width="111.829" height="41.677"/>
		</g>
		<g>
			<polyline fill="#FDD835" points="47.217,98.683 117.121,98.683 117.121,140.372 5.292,140.372 5.292,98.683 28.676,98.683 			"/>
			<polyline fill="#FDD835" points="104.543,-20.724 117.121,-20.724 117.121,37.514 5.292,37.514 5.292,-20.724 85.013,-20.724 			
				"/>
		</g>
	</g>
</g>
</svg>
