<?xml version="1.0" encoding="utf-8"?>
<!-- Generator: Adobe Illustrator 16.0.0, SVG Export Plug-In . SVG Version: 6.00 Build 0)  -->
<!DOCTYPE svg PUBLIC "-//W3C//DTD SVG 1.1//EN" "http://www.w3.org/Graphics/SVG/1.1/DTD/svg11.dtd">
<svg version="1.1" id="Layer_1" xmlns="http://www.w3.org/2000/svg" xmlns:xlink="http://www.w3.org/1999/xlink" x="0px" y="0px"
	 width="18px" height="18px" viewBox="-1 -1 18 18" enable-background="new -1 -1 18 18" xml:space="preserve">
<g>
	<g>
		<path fill="#EEEEEE" d="M0.5,4.046c0.012-0.229,0.133-0.438,0.324-0.563l6.85-3.951c0.205-0.104,0.447-0.104,0.65,0l6.85,3.951
			c0.191,0.125,0.313,0.334,0.326,0.563v7.904c-0.014,0.23-0.135,0.439-0.326,0.566l-6.85,3.949c-0.203,0.105-0.445,0.105-0.65,0
			l-6.85-3.949C0.633,12.39,0.512,12.181,0.5,11.95V4.046z"/>
		<path fill="#E0E0E0" d="M15.172,3.481L8.324-0.472C8.229-0.521,8.123-0.548,8.014-0.548v17.096c0.109,0,0.215-0.027,0.311-0.078
			l6.848-3.951c0.193-0.125,0.314-0.334,0.328-0.564v-7.91C15.484,3.815,15.363,3.606,15.172,3.481z"/>
	</g>
	<path fill="#807D7D" d="M2.35,3.727h11.3c0.137,0,0.25,0.112,0.25,0.25v6.924c0,0.137-0.113,0.25-0.25,0.25H2.35
		c-0.138,0-0.251-0.113-0.251-0.25V3.977C2.099,3.839,2.212,3.727,2.35,3.727z"/>
	<path fill="#4FC3F7" d="M2.625,4.23h10.75v6.551H2.625V4.23z"/>
	<path fill="#807D7D" d="M1,11.315h14v0.479c0,0.265-0.216,0.479-0.479,0.479H1.479C1.216,12.273,1,12.059,1,11.794V11.315z"/>
	<path fill="#666666" d="M6.082,11.315h3.836v0.141c0,0.077-0.063,0.142-0.141,0.142H6.223c-0.077,0-0.141-0.064-0.141-0.142V11.315
		z"/>
	<path fill="#FF757C" d="M2.625,4.23H3.72v0.412H2.625V4.23z"/>
	<path fill="#FFFFFF" d="M13.375,4.23H3.72v0.412h9.655V4.23z"/>
	<path fill="#666666" d="M3.602,11.15h0.782v0.165H3.602V11.15z M11.616,11.15L11.616,11.15h0.782v0.165h-0.782V11.15z"/>
	<path fill="#FFFFFF" d="M7.457,5.334c0.139,0,0.275,0.013,0.408,0.038l0.009,0.002C7.888,5.377,7.902,5.38,7.917,5.383L7.92,5.384
		L7.93,5.386c0.012,0.003,0.024,0.005,0.037,0.009l0.009,0.002C7.991,5.4,8.006,5.404,8.021,5.408L8.03,5.411
		c0.016,0.004,0.03,0.009,0.045,0.013l0.009,0.002C8.096,5.43,8.107,5.434,8.12,5.438L8.129,5.44l0.008,0.003
		c0.012,0.003,0.024,0.007,0.036,0.012l0.009,0.003l0.002,0.001c0.014,0.005,0.028,0.01,0.042,0.015l0,0l0.009,0.003h0
		c0.013,0.005,0.025,0.01,0.039,0.015l0.004,0.002l0.008,0.004c0.011,0.004,0.023,0.009,0.034,0.014l0.001,0l0.008,0.004L8.336,5.52
		c0.011,0.004,0.021,0.009,0.032,0.015l0.001,0L8.378,5.54c0.014,0.006,0.028,0.013,0.041,0.02l0,0l0.008,0.004
		c0.711,0.356,1.2,1.092,1.2,1.942c0,0.851-0.488,1.587-1.2,1.942L8.42,9.452h0C8.406,9.46,8.392,9.467,8.378,9.472L8.37,9.477
		L8.368,9.478C8.357,9.482,8.347,9.486,8.336,9.492L8.328,9.496L8.32,9.499H8.319c-0.011,0.006-0.022,0.01-0.034,0.015L8.277,9.518
		L8.273,9.52C8.26,9.524,8.248,9.529,8.234,9.533l0,0.001L8.225,9.537l0,0C8.211,9.543,8.198,9.548,8.184,9.554H8.182L8.173,9.558
		C8.161,9.561,8.149,9.564,8.137,9.569L8.129,9.571L8.12,9.574C8.107,9.579,8.096,9.582,8.084,9.586L8.075,9.588
		C8.06,9.593,8.045,9.597,8.03,9.601L8.021,9.604c-0.015,0.003-0.03,0.007-0.045,0.011L7.966,9.617
		C7.954,9.62,7.942,9.623,7.93,9.626L7.92,9.628L7.917,9.63C7.902,9.631,7.888,9.635,7.874,9.638L7.865,9.64
		C7.732,9.665,7.596,9.679,7.457,9.679c-0.104,0-0.207-0.009-0.307-0.022l0,0h0C7.116,9.651,7.083,9.646,7.05,9.64L7.038,9.637
		C7.026,9.635,7.014,9.632,7.001,9.63L6.989,9.627H6.988C6.903,9.607,6.82,9.584,6.74,9.557L6.738,9.556L6.727,9.552
		C6.714,9.547,6.703,9.543,6.691,9.539L6.68,9.534C5.865,9.222,5.285,8.432,5.285,7.506c0-0.926,0.58-1.716,1.395-2.028l0.011-0.004
		c0.011-0.004,0.023-0.009,0.035-0.013l0.012-0.004l0.001,0c0.081-0.028,0.164-0.052,0.249-0.07l0.001,0l0.012-0.002
		C7.014,5.38,7.026,5.377,7.038,5.375L7.05,5.373c0.033-0.006,0.066-0.011,0.099-0.016h0l0,0C7.25,5.342,7.353,5.334,7.457,5.334
		L7.457,5.334z M7.156,5.908L7.156,5.908c-0.193,0.135-0.361,0.305-0.494,0.5c0.109,0.018,0.221,0.032,0.334,0.043
		C7.039,6.262,7.092,6.08,7.156,5.908z M6.425,6.364L6.425,6.364c0.198-0.321,0.479-0.586,0.812-0.768
		C7.208,5.59,7.179,5.585,7.15,5.581C6.682,5.655,6.269,5.896,5.975,6.24C6.119,6.288,6.27,6.33,6.425,6.364L6.425,6.364z
		 M5.819,6.449L5.819,6.449C5.646,6.718,5.535,7.033,5.513,7.372h0.592c0.017-0.275,0.084-0.536,0.194-0.773
		C6.132,6.557,5.972,6.507,5.819,6.449z M6.522,6.648L6.522,6.648C6.414,6.869,6.346,7.113,6.328,7.372h0.555
		C6.89,7.145,6.91,6.924,6.946,6.711C6.801,6.696,6.659,6.675,6.522,6.648L6.522,6.648z M6.884,7.639L6.884,7.639H6.328
		c0.015,0.222,0.067,0.434,0.15,0.629c0.146-0.03,0.297-0.053,0.452-0.07C6.904,8.017,6.889,7.831,6.884,7.639z M6.259,8.32
		L6.259,8.32C6.173,8.107,6.12,7.878,6.105,7.639H5.513c0.021,0.304,0.111,0.59,0.255,0.84C5.924,8.417,6.088,8.363,6.259,8.32
		L6.259,8.32L6.259,8.32z M5.91,8.69L5.91,8.69c0.297,0.388,0.737,0.66,1.24,0.74C7.179,9.425,7.208,9.42,7.237,9.414
		C6.873,9.217,6.572,8.919,6.372,8.556C6.212,8.593,6.057,8.639,5.91,8.69z M6.602,8.51L6.602,8.51
		c0.141,0.234,0.33,0.437,0.554,0.594C7.081,8.9,7.02,8.685,6.975,8.458C6.848,8.471,6.724,8.488,6.602,8.51z M7.766,9.223
		L7.766,9.223C8.062,9.063,8.312,8.83,8.49,8.547C8.33,8.512,8.163,8.485,7.992,8.465C7.938,8.734,7.861,8.987,7.766,9.223
		L7.766,9.223z M8.717,8.604L8.717,8.604c-0.196,0.335-0.48,0.612-0.82,0.801c0.447-0.103,0.834-0.359,1.105-0.712
		C8.91,8.66,8.814,8.63,8.717,8.604z M9.144,8.481L9.144,8.481c0.146-0.25,0.236-0.536,0.258-0.842H9.011
		c-0.016,0.26-0.077,0.507-0.177,0.734C8.94,8.406,9.044,8.442,9.144,8.481z M8.617,8.313L8.617,8.313
		c0.096-0.208,0.154-0.435,0.17-0.673H8.084C8.079,7.833,8.063,8.022,8.037,8.206C8.237,8.229,8.431,8.266,8.617,8.313L8.617,8.313z
		 M8.084,7.372L8.084,7.372h0.703C8.769,7.098,8.692,6.838,8.572,6.606C8.395,6.649,8.211,6.682,8.021,6.704
		C8.057,6.919,8.078,7.142,8.084,7.372L8.084,7.372z M8.792,6.548L8.792,6.548c0.124,0.251,0.201,0.53,0.219,0.824h0.391
		c-0.023-0.34-0.134-0.656-0.309-0.926C8.996,6.483,8.896,6.518,8.792,6.548L8.792,6.548L8.792,6.548z M8.937,6.238L8.937,6.238
		c-0.266-0.311-0.628-0.536-1.04-0.631c0.309,0.172,0.572,0.417,0.765,0.713C8.756,6.295,8.849,6.268,8.937,6.238z M8.43,6.374
		L8.43,6.374C8.257,6.132,8.029,5.931,7.766,5.789C7.849,5.994,7.918,6.213,7.97,6.445C8.127,6.429,8.281,6.405,8.43,6.374
		L8.43,6.374z M7.257,6.468L7.257,6.468c0.064,0.002,0.129,0.004,0.195,0.004c0.087,0,0.173-0.002,0.258-0.007
		C7.654,6.211,7.578,5.97,7.484,5.747C7.39,5.971,7.313,6.213,7.257,6.468z M7.76,6.727L7.76,6.727
		c-0.101,0.006-0.204,0.01-0.308,0.01c-0.083,0-0.164-0.002-0.245-0.006C7.174,6.938,7.154,7.152,7.148,7.372H7.82
		C7.813,7.151,7.793,6.935,7.76,6.727L7.76,6.727z M7.148,7.639L7.148,7.639c0.005,0.184,0.02,0.364,0.044,0.539
		c0.086-0.004,0.172-0.007,0.26-0.007c0.109,0,0.217,0.003,0.323,0.01C7.8,8.006,7.815,7.825,7.82,7.639H7.148z M7.236,8.441
		L7.236,8.441c0.058,0.293,0.142,0.57,0.248,0.824c0.106-0.254,0.19-0.528,0.248-0.821C7.639,8.438,7.546,8.436,7.452,8.436
		C7.38,8.436,7.307,8.438,7.236,8.441z"/>
	<path fill="#FFA726" d="M9.398,9.522c0.725,0,1.316-0.59,1.316-1.315c0-0.725-0.592-1.316-1.316-1.316
		c-0.726,0-1.316,0.591-1.316,1.316C8.083,8.933,8.673,9.522,9.398,9.522z"/>
	<path fill="#FFFFFF" d="M9.431,9.105c-0.124,0-0.238-0.02-0.341-0.061C8.987,9.006,8.898,8.947,8.824,8.87
		c-0.072-0.078-0.13-0.172-0.171-0.282c-0.04-0.112-0.061-0.238-0.061-0.38c0-0.14,0.021-0.266,0.06-0.375
		c0.039-0.111,0.095-0.206,0.165-0.283s0.155-0.137,0.255-0.178C9.171,7.329,9.28,7.309,9.398,7.309c0.122,0,0.234,0.02,0.333,0.061
		c0.1,0.041,0.184,0.1,0.254,0.177c0.07,0.078,0.124,0.171,0.161,0.282c0.038,0.112,0.057,0.238,0.057,0.379v0.074H8.912
		C8.92,8.38,8.937,8.467,8.965,8.539c0.028,0.073,0.066,0.134,0.111,0.183c0.046,0.048,0.1,0.084,0.159,0.108
		c0.06,0.023,0.125,0.036,0.195,0.036c0.051,0,0.101-0.007,0.15-0.021c0.05-0.013,0.096-0.033,0.136-0.06
		c0.039-0.026,0.072-0.059,0.098-0.098c0.024-0.039,0.037-0.083,0.039-0.134h0.319c-0.014,0.088-0.041,0.167-0.084,0.235
		c-0.042,0.069-0.096,0.127-0.161,0.173c-0.064,0.047-0.14,0.083-0.225,0.107S9.527,9.105,9.431,9.105L9.431,9.105z M9.881,8.04
		L9.881,8.04C9.857,7.877,9.802,7.755,9.715,7.673C9.628,7.59,9.522,7.549,9.398,7.549c-0.062,0-0.118,0.01-0.172,0.031
		C9.172,7.6,9.125,7.63,9.082,7.671c-0.041,0.04-0.076,0.092-0.105,0.153C8.947,7.886,8.928,7.958,8.916,8.04H9.881L9.881,8.04
		L9.881,8.04z"/>
</g>
</svg>
