<?xml version="1.0" encoding="utf-8"?>
<!-- Generator: Adobe Illustrator 16.0.0, SVG Export Plug-In . SVG Version: 6.00 Build 0)  -->
<!DOCTYPE svg PUBLIC "-//W3C//DTD SVG 1.1//EN" "http://www.w3.org/Graphics/SVG/1.1/DTD/svg11.dtd">
<svg version="1.1" id="Layer_1" xmlns="http://www.w3.org/2000/svg" xmlns:xlink="http://www.w3.org/1999/xlink" x="0px" y="0px"
	 width="330px" height="330px" viewBox="-156 -156 330 330" enable-background="new -156 -156 330 330" xml:space="preserve">
<g>
	<g>
		<path fill="#EEEEEE" d="M-132-65.792c0.246-4.257,2.479-8.158,6.088-10.491L1.93-150.047c3.828-1.923,8.349-1.923,12.159,0
			l127.822,73.764c3.609,2.333,5.87,6.234,6.089,10.509V81.773c-0.219,4.284-2.479,8.185-6.089,10.519L14.089,166.011
			c-3.828,1.969-8.349,1.969-12.159,0l-127.841-73.719c-3.609-2.37-5.842-6.271-6.088-10.537V-65.792z"/>
		<path fill="#E0E0E0" d="M141.875-76.319L14.052-150.102c-1.795-0.939-3.755-1.44-5.788-1.44v319.083
			c2.033,0,3.993-0.475,5.806-1.422l127.805-73.756c3.609-2.333,5.87-6.234,6.125-10.518V-65.81
			C147.708-70.103,145.448-73.986,141.875-76.319z"/>
	</g>
	<path fill="#4FC3F7" d="M8,116.172c-59.637,0-108.172-48.526-108.172-108.154c0-59.637,48.535-108.172,108.172-108.172
		c59.646,0,108.172,48.535,108.172,108.172C116.172,67.646,67.646,116.172,8,116.172z"/>
	<path fill="#4FC3F7" d="M58.477,80.114c-59.646,0-108.172-48.535-108.172-108.163c0-24.956,8.586-47.915,22.841-66.245
		C-69.428-79.755-100.172-39.451-100.172,8c0,59.646,48.535,108.153,108.172,108.153c34.672,0,65.516-16.442,85.313-41.891
		C82.375,78,70.672,80.114,58.477,80.114z"/>
	<path fill="#EFF2FA" d="M66.261-52.083h31.646c-1.896-2.771-3.864-5.432-5.942-8.012H63.125
		C56.745-75.07,48.323-87.33,38.589-95.733c-9.717-2.871-19.988-4.421-30.589-4.421c-10.6,0-20.873,1.55-30.598,4.421
		c-9.725,8.403-18.156,20.663-24.527,35.638h-28.838c-2.087,2.58-4.065,5.241-5.934,8.012h31.637
		c-5.879,16.479-9.388,35.611-9.798,56.091h-40.004c-0.073,1.34-0.109,2.643-0.109,3.992s0.037,2.671,0.109,3.992h40.022
		c0.392,20.499,3.919,39.648,9.78,56.109h-31.637c1.887,2.771,3.846,5.433,5.934,8.003h28.838
		c6.371,14.984,14.802,27.234,24.527,35.619c9.725,2.862,19.979,4.43,30.598,4.43c10.618,0,20.872-1.567,30.589-4.43
		c9.734-8.385,18.192-20.635,24.536-35.619h28.839c2.078-2.57,4.064-5.214,5.942-8.003H66.261
		c5.869-16.479,9.388-35.61,9.771-56.109h40.031c0.073-1.321,0.109-2.625,0.109-3.992s-0.036-2.67-0.109-4.01H76.031
		C75.648-16.473,72.13-35.604,66.261-52.083z M4.008,115.917c-17.19-2.042-32.412-17.136-42.656-39.813H4.008V115.917L4.008,115.917
		z M4.008,68.12h-45.956c-6.016-16.188-9.671-35.383-10.081-56.109H4.008V68.12z M4.008,4.008h-56.037
		c0.41-20.708,4.065-39.931,10.081-56.091H4.008V4.008L4.008,4.008z M4.008-60.095h-42.656
		c10.245-22.677,25.466-37.743,42.656-39.803V-60.095L4.008-60.095z M11.992-99.898c17.19,2.06,32.411,17.126,42.656,39.803H11.992
		V-99.898z M11.992,115.917V76.104h42.656C44.403,98.781,29.183,113.875,11.992,115.917z M57.948,68.12H11.992V11.992h56.036
		C67.609,32.719,63.964,51.933,57.948,68.12z M11.992,4.008v-56.091h45.956c6.016,16.16,9.661,35.383,10.08,56.091H11.992
		L11.992,4.008z"/>
	<g>
		<path fill="#E4EAF6" d="M17.333,115.771c1.814-0.182,3.564-0.4,5.342-0.619c0.692-0.109,1.357-0.183,2.051-0.328
			c1.832-0.273,3.618-0.584,5.396-1.003c0.538-0.109,1.121-0.183,1.659-0.347c2.133-0.455,4.238-1.021,6.262-1.604
			c0.219-0.073,0.4-0.109,0.547-0.183c8.859-7.656,16.625-18.521,22.786-31.719c-0.984,0.036-1.933,0.109-2.898,0.109
			c-1.914,0-3.792-0.036-5.669-0.146c-10.172,20.544-24.628,34.016-40.834,35.947V76.067h17.418
			c-8.996-2.516-17.509-6.161-25.384-10.755v2.771h-45.956c-6.016-16.188-9.671-35.383-10.081-56.109h10.063
			c-1.048-2.588-2.042-5.241-2.88-7.966h-7.183c0.183-9.297,1.058-18.275,2.461-26.842c-0.073-1.741-0.127-3.455-0.127-5.214
			c0-19.277,5.168-37.333,14.055-52.992c-4.293,6.162-8.176,13.18-11.484,20.945h-28.711c-0.702,0.857-1.395,1.75-2.087,2.652
			c-0.856,1.121-1.713,2.242-2.516,3.391c-0.456,0.638-0.884,1.313-1.331,1.969h31.509c-5.879,16.479-9.388,35.611-9.798,56.091
			h-39.949c-0.055,1.34-0.164,2.643-0.164,3.992s0.037,2.671,0.109,3.992h40.022c0.392,20.499,3.919,39.648,9.78,56.109h-31.637l0,0
			c1.887,2.771,3.846,5.433,5.934,8.003l0,0h28.838c6.371,14.984,14.802,27.234,24.527,35.619c2.37,0.711,4.803,1.331,7.246,1.896
			c0.091,0.036,0.146,0.036,0.201,0.036c2.47,0.583,4.949,0.984,7.438,1.349c0.109,0.037,0.219,0.037,0.328,0.073
			c2.169,0.292,4.375,0.547,6.608,0.692c0.529,0.073,1.084,0.109,1.631,0.183c2.37,0.146,4.74,0.219,7.146,0.219
			c2.461,0,4.913-0.073,7.337-0.255C16.012,115.88,16.677,115.771,17.333,115.771z M4.008,115.917
			c-17.19-2.042-32.412-17.136-42.656-39.813H4.008V115.917L4.008,115.917z"/>
		<path fill="#E4EAF6" d="M93.313,74.281c-2.023,0.656-4.12,1.239-6.234,1.823h4.703C92.292,75.484,92.839,74.901,93.313,74.281z"/>
	</g>
	<g>
		<path fill="#FF6464" d="M5.029-6.693c-5.15,0-9.333,4.184-9.333,9.333c0,7.993,9.333,14.675,9.333,14.675
			s9.333-6.682,9.333-14.675C14.362-2.509,10.188-6.693,5.029-6.693z M5.029,7.982c-2.944,0-5.332-2.388-5.332-5.341
			c0-2.944,2.388-5.341,5.332-5.341c2.953,0,5.341,2.397,5.341,5.341C10.37,5.594,7.982,7.982,5.029,7.982z"/>
		<path fill="#D2555A" d="M-0.303,2.641c0-1.549,0.647-2.908,1.695-3.883C2.03-4.451,3.406-6.693,5.029-6.693
			c-5.15,0-9.333,4.184-9.333,9.333c0,7.993,9.333,14.675,9.333,14.675s-2.78-4.667-3.691-10.847
			C0.326,5.502-0.303,4.135-0.303,2.641z"/>
	</g>
	<g>
		<path fill="#F7D694" d="M-32.916-15.051c1.887-4.703,1.176-9.169-1.176-10.117c-0.465-0.246-1.176-0.246-1.887,0
			c-2.598,0.702-5.414,0.465-7.993-0.465l-8.695-3.291l-4.484,11.521l8.704,3.299c2.57,0.939,4.931,2.58,6.344,4.931
			c0.246,0.465,0.711,0.948,1.422,1.176C-38.092-7.285-34.802-10.33-32.916-15.051z"/>
		<path fill="#F7D694" d="M-32.916,30.567c-1.887-4.703-5.177-7.747-7.528-6.817c-0.465,0.246-0.93,0.711-1.413,1.185
			c-1.422,2.352-3.773,3.765-6.353,4.94l-8.695,3.29l4.238,11.512l8.695-3.281c2.598-0.947,5.414-1.422,7.993-0.474
			c0.711,0.255,1.176,0.255,1.887,0C-31.74,39.755-31.029,35.271-32.916,30.567z"/>
	</g>
	<rect x="-121.117" y="-20.693" fill="#F9B54C" width="28.912" height="54.56"/>
	<g>
		<path fill="#2B3B4E" d="M-40.681-27.748L-47.982-9.4h-0.228c-0.702-0.237-1.395-0.483-2.124-0.702c0,0-24.919-9.88-25.165-9.88
			c-0.93,0-5.633-2.352-5.633,3.992c0,0-0.711,12.715-1.176,17.883h-29.404c0.939-8.941,6.125-34.098,28.447-40.204
			c3.527-0.939,7.055-0.939,10.591-0.465c0.93,0.219,29.395,9.871,29.395,9.871C-42.322-28.458-41.392-28.212-40.681-27.748z"/>
		<path fill="#2B3B4E" d="M-43.033,44.677L-43.033,44.677c0,0-28.446,9.881-29.403,9.881c-3.527,0.474-7.055,0.474-10.582-0.475
			c-22.568-6.088-27.754-31.263-28.693-40.204h29.623c0.246,5.168,1.176,17.883,1.176,17.883c0,6.371,4.703,3.992,5.642,3.992
			c0.237,0,22.814-8.941,24.919-9.625L-43.033,44.677z"/>
	</g>
	<path fill="#FFD05B" d="M-114.992-18.578v50.094c0,4.466-3.773,8.239-8.23,8.239l0,0v-66.573l0,0
		C-118.766-26.818-114.992-23.044-114.992-18.578z"/>
	<polygon fill="#324A5E" points="-77.367,17.871 -97.109,29.392 -116.879,17.871 -116.879,-4.934 -97.109,-16.227 -77.367,-4.934 	
		"/>
	<g>
		<path fill="#F7D694" d="M48.906-15.051c-1.878-4.703-1.167-9.169,1.185-10.117c0.456-0.246,1.186-0.246,1.878,0
			c2.606,0.702,5.433,0.465,8.021-0.465l8.695-3.291l4.484,11.521l-8.731,3.299c-2.589,0.939-4.922,2.58-6.344,4.931
			c-0.237,0.465-0.692,0.948-1.422,1.176C54.083-7.285,50.802-10.33,48.906-15.051z"/>
		<path fill="#F7D694" d="M48.906,30.567c1.896-4.703,5.159-7.747,7.547-6.817c0.456,0.246,0.911,0.711,1.386,1.185
			c1.403,2.352,3.773,3.765,6.38,4.94l8.677,3.29l-4.229,11.512l-8.933-3.5c-2.606-0.947-5.396-1.403-8.003-0.474
			c-0.711,0.255-1.185,0.255-1.896,0C47.739,39.755,47.047,35.271,48.906,30.567z"/>
	</g>
	<rect x="108.188" y="-20.693" fill="#F9B54C" width="28.911" height="54.56"/>
	<g>
		<path fill="#FF7058" d="M56.672-27.748L63.964-9.4h0.255c0.692-0.237,1.386-0.465,2.114-0.702c0,0,24.92-9.88,25.156-9.88
			c0.948,0,5.651-2.352,5.651,3.992c0,0,0.692,12.715,1.185,17.883h29.641c-0.947-8.941-6.106-34.098-28.455-40.204
			c-3.519-0.939-7.037-0.939-10.573-0.465c-0.948,0.219-29.386,9.871-29.386,9.871C58.313-28.458,57.401-28.212,56.672-27.748z"/>
		<path fill="#FF7058" d="M59.042,44.677L59.042,44.677c0,0,28.419,9.881,29.385,9.881c3.519,0.474,7.037,0.474,10.555-0.475
			c22.586-6.344,27.545-31.5,28.456-40.204H97.797c-0.2,5.168-1.13,17.864-1.13,17.864c0,6.371-4.703,3.992-5.651,3.992
			c-0.255,0-22.823-8.941-24.938-9.634L59.042,44.677z"/>
	</g>
	<path fill="#FFD05B" d="M130.992-18.578v50.094c0,4.466,3.773,8.239,8.222,8.239l0,0v-66.573l0,0
		C134.766-26.818,130.992-23.044,130.992-18.578z"/>
	<polygon fill="#324A5E" points="93.367,17.871 113.109,29.392 132.87,17.871 132.87,-4.934 113.109,-16.227 93.367,-4.934 	"/>
	<g>
		<path fill="#F7D694" d="M31.032-32.916c4.703,1.887,9.197,1.176,10.108-1.176c0.255-0.474,0.255-1.176,0-1.887
			c-0.692-2.598-0.456-5.414,0.474-7.993l3.318-8.695l-11.53-4.484l-3.3,8.723c-0.938,2.579-2.579,4.931-4.931,6.344
			c-0.465,0.228-0.948,0.692-1.194,1.403C23.267-38.083,26.329-34.802,31.032-32.916z"/>
		<path fill="#F7D694" d="M-14.568-32.916c4.703-1.887,7.766-5.168,6.809-7.52c-0.219-0.474-0.702-0.938-1.176-1.422
			c-2.352-1.422-3.764-3.773-4.94-6.344l-3.291-8.704l-11.512,4.238l3.281,8.695c0.939,2.598,1.422,5.414,0.465,7.993
			c-0.237,0.711-0.237,1.176,0,1.887C-23.755-31.74-19.271-31.029-14.568-32.916z"/>
	</g>
	<rect x="-17.876" y="-121.117" fill="#F9B54C" width="54.569" height="28.912"/>
	<g>
		<path fill="#E6E9EE" d="M43.747-40.681l-18.348-7.301v-0.219c0.256-0.711,0.465-1.403,0.729-2.114c0,0,9.853-24.919,9.853-25.166
			c0-0.93,2.352-5.633-3.992-5.633c0,0-12.715-0.711-17.883-1.176v-29.422c8.941,0.939,34.107,6.125,40.232,28.447
			c0.93,3.527,0.93,7.063,0.438,10.582c-0.237,0.938-9.844,29.403-9.844,29.403C44.458-42.322,44.203-41.392,43.747-40.681z"/>
		<path fill="#E6E9EE" d="M-28.677-43.033L-28.677-43.033c0,0-9.88-28.446-9.88-29.403c-0.483-3.527-0.483-7.055,0.465-10.564
			c6.353-22.586,31.518-27.535,40.213-28.465v29.623c-5.168,0.246-17.865,1.176-17.865,1.176c-6.344,0-3.992,4.703-3.992,5.633
			c0,0.246,8.941,22.813,9.644,24.928L-28.677-43.033z"/>
	</g>
	<path fill="#FFD05B" d="M34.578-114.992h-50.094c-4.466,0-8.24-3.773-8.24-8.24l0,0h66.318l0,0
		C42.817-118.766,39.044-114.992,34.578-114.992z"/>
	<polygon fill="#324A5E" points="-1.871,-77.367 -13.392,-97.109 -1.871,-116.879 20.934,-116.879 32.227,-97.109 20.934,-77.367 	
		"/>
	<g>
		<path fill="#F7D694" d="M31.032,48.906c4.703-1.878,9.197-1.167,10.108,1.185c0.255,0.475,0.255,1.186,0,1.878
			c-0.692,2.606-0.456,5.433,0.474,8.021l3.318,8.695l-11.53,4.484l-3.317-8.731c-0.939-2.589-2.58-4.922-4.932-6.344
			c-0.465-0.237-0.947-0.692-1.176-1.422C23.267,54.083,26.329,50.802,31.032,48.906z"/>
		<path fill="#F7D694" d="M-14.568,48.906c4.703,1.896,7.766,5.159,6.809,7.528c-0.219,0.475-0.702,0.93-1.176,1.404
			c-2.352,1.403-3.764,3.773-4.94,6.361l-3.291,8.695l-11.512-4.229l3.281-8.695c0.939-2.607,1.422-5.414,0.465-8.003
			c-0.237-0.692-0.237-1.185,0-1.896C-23.755,47.739-19.271,47.047-14.568,48.906z"/>
	</g>
	<rect x="-17.876" y="108.188" fill="#F9B54C" width="54.569" height="28.911"/>
	<g>
		<path fill="#2B3B4E" d="M43.747,56.672l-18.348,7.292v0.255c0.256,0.692,0.465,1.386,0.729,2.114c0,0,9.853,24.92,9.853,25.156
			c0,0.948,2.352,5.651-3.992,5.651c0,0-12.715,0.692-17.883,1.185v29.641c8.941-0.947,34.107-6.106,40.232-28.455
			c0.93-3.519,0.93-7.037,0.438-10.573c-0.237-0.948-9.844-29.386-9.844-29.386C44.458,58.313,44.203,57.401,43.747,56.672z"/>
		<path fill="#2B3B4E" d="M-28.677,59.042L-28.677,59.042c0,0-9.88,28.419-9.88,29.385c-0.465,3.519-0.465,7.037,0.465,10.555
			c6.353,22.586,31.518,27.545,40.213,28.456V97.797c-5.168-0.2-17.865-1.13-17.865-1.13c-6.344,0-3.992-4.703-3.992-5.651
			c0-0.255,8.941-22.823,9.644-24.938L-28.677,59.042z"/>
	</g>
	<path fill="#FFD05B" d="M34.578,130.992h-50.094c-4.466,0-8.24,3.773-8.24,8.222l0,0h66.318l0,0
		C42.817,134.766,39.044,130.992,34.578,130.992z"/>
	<polygon fill="#324A5E" points="-1.871,93.367 -13.392,113.109 -1.871,132.87 20.934,132.87 32.227,113.109 20.934,93.367 	"/>
	<g>
		<path fill="#FF6464" d="M24.972,40.375c3.08,3.555,8.431,3.938,11.994,0.839c5.523-4.776,4.521-15.186,4.521-15.186
			s-10.19-2.442-15.678,2.334C22.265,31.479,21.909,36.875,24.972,40.375z M35.052,31.634c1.787,2.015,1.55,5.096-0.474,6.846
			c-2.015,1.75-5.113,1.567-6.845-0.475c-1.777-2.005-1.55-5.104,0.465-6.854C30.212,29.392,33.293,29.583,35.052,31.634z"/>
		<path fill="#D2555A" d="M34.578,38.479c-1.058,0.911-2.406,1.294-3.691,1.13c-2.579,1.495-4.949,1.896-5.897,0.766
			c3.081,3.555,8.432,3.938,11.995,0.839c5.505-4.776,4.521-15.186,4.521-15.186s-1.567,4.722-5.25,9.042
			C36.164,36.328,35.608,37.586,34.578,38.479z"/>
	</g>
	<g>
		<path fill="#FF6464" d="M-26.645,19.913c3.081,3.545,8.44,3.919,12.004,0.82c5.505-4.768,4.512-15.176,4.512-15.176
			s-10.19-2.452-15.677,2.333C-29.37,10.989-29.725,16.386-26.645,19.913z M-16.564,11.136c1.787,2.014,1.55,5.095-0.465,6.854
			c-2.023,1.75-5.122,1.568-6.872-0.474c-1.777-2.015-1.55-5.113,0.465-6.845C-21.404,8.893-18.323,9.103-16.564,11.136z"/>
		<path fill="#D2555A" d="M-17.047,17.989c-1.048,0.912-2.416,1.285-3.701,1.158c-2.579,1.485-4.949,1.887-5.897,0.766
			c3.081,3.545,8.44,3.919,12.004,0.82c5.505-4.768,4.512-15.176,4.512-15.176s-1.568,4.704-5.259,9.033
			C-15.461,15.839-16.008,17.087-17.047,17.989z"/>
	</g>
</g>
</svg>
