<?xml version="1.0" encoding="utf-8"?>
<!-- Generator: Adobe Illustrator 16.0.0, SVG Export Plug-In . SVG Version: 6.00 Build 0)  -->
<!DOCTYPE svg PUBLIC "-//W3C//DTD SVG 1.1//EN" "http://www.w3.org/Graphics/SVG/1.1/DTD/svg11.dtd">
<svg version="1.1" id="Layer_1" xmlns="http://www.w3.org/2000/svg" xmlns:xlink="http://www.w3.org/1999/xlink" x="0px" y="0px"
	 width="18px" height="18px" viewBox="-1 -1 18 18" enable-background="new -1 -1 18 18" xml:space="preserve">
<g>
	<g>
		<path fill="#EEEEEE" d="M0.585,4.048c0.013-0.229,0.134-0.438,0.325-0.563l6.849-3.952c0.205-0.103,0.447-0.103,0.651,0
			l6.849,3.952c0.191,0.125,0.313,0.334,0.326,0.563v7.903c-0.014,0.229-0.135,0.438-0.326,0.564l-6.849,3.951
			c-0.204,0.104-0.446,0.104-0.651,0l-6.849-3.951c-0.191-0.127-0.313-0.336-0.325-0.564V4.048z"/>
		<path fill="#E0E0E0" d="M15.258,3.482L8.41-0.47C8.314-0.52,8.208-0.547,8.099-0.547v17.094c0.109,0,0.215-0.025,0.312-0.076
			l6.847-3.953c0.193-0.125,0.314-0.334,0.328-0.563v-7.91C15.57,3.816,15.449,3.607,15.258,3.482z"/>
	</g>
	<path fill="#464655" d="M14.137,3.353H2.033c-0.248,0-0.448,0.201-0.448,0.448v7.173h13V3.801
		C14.586,3.554,14.385,3.353,14.137,3.353z M13.912,10.301H2.258V4.025h11.654V10.301z"/>
	<g>
		<path fill="#FFFFFF" d="M6.741,6.828c0.062,0,0.112,0.05,0.112,0.112h0.336V6.603H6.741c-0.062,0-0.112-0.05-0.112-0.111
			c0-0.063,0.051-0.113,0.112-0.113h0.448V4.922H5.171v2.017h1.457C6.628,6.878,6.679,6.828,6.741,6.828z"/>
		<path fill="#FFFFFF" d="M2.258,10.301h11.654V4.025H2.258V10.301z M7.188,9.74H6.741c-0.062,0-0.112-0.05-0.112-0.112
			c0-0.062,0.051-0.11,0.112-0.11h0.448c0.062,0,0.113,0.049,0.113,0.11C7.301,9.69,7.25,9.74,7.188,9.74z M6.741,8.621
			c0.062,0,0.112,0.049,0.112,0.112v0.447c0,0.063-0.05,0.113-0.112,0.113S6.628,9.243,6.628,9.181V8.733
			C6.628,8.67,6.679,8.621,6.741,8.621z M6.628,8.284V7.836c0-0.062,0.051-0.113,0.112-0.113s0.112,0.051,0.112,0.113v0.448
			c0,0.062-0.05,0.112-0.112,0.112S6.628,8.346,6.628,8.284z M8.085,9.74H7.638c-0.063,0-0.113-0.05-0.113-0.112
			c0-0.062,0.05-0.11,0.113-0.11h0.448c0.062,0,0.111,0.049,0.111,0.11C8.197,9.69,8.147,9.74,8.085,9.74z M9.99,9.181
			c0,0.063-0.049,0.113-0.111,0.113c-0.061,0-0.111-0.051-0.111-0.113V8.733c0-0.063,0.051-0.112,0.111-0.112
			c0.063,0,0.111,0.049,0.111,0.112V9.181z M9.99,8.284c0,0.062-0.049,0.112-0.111,0.112c-0.061,0-0.111-0.051-0.111-0.112V7.836
			c0-0.062,0.051-0.113,0.111-0.113c0.063,0,0.111,0.051,0.111,0.113V8.284z M9.99,7.388C9.99,7.45,9.941,7.5,9.879,7.5
			c-0.061,0-0.111-0.05-0.111-0.112V6.939c0-0.062,0.051-0.112,0.111-0.112c0.063,0,0.111,0.05,0.111,0.112V7.388z M10.998,7.612
			V6.042V4.698c0-0.123,0.102-0.224,0.227-0.224h2.016c0.123,0,0.225,0.101,0.225,0.224v1.345v1.569v2.016
			c0,0.124-0.102,0.226-0.225,0.226h-2.016c-0.125,0-0.227-0.102-0.227-0.226V7.612z M9.43,6.378h0.449
			c0.063,0,0.111,0.05,0.111,0.113c0,0.062-0.049,0.111-0.111,0.111H9.43c-0.061,0-0.111-0.05-0.111-0.111
			C9.318,6.429,9.369,6.378,9.43,6.378z M9.43,9.518h0.449c0.063,0,0.111,0.049,0.111,0.11c0,0.063-0.049,0.112-0.111,0.112H9.43
			c-0.061,0-0.111-0.05-0.111-0.112C9.318,9.566,9.369,9.518,9.43,9.518z M8.535,6.378H8.98c0.063,0,0.113,0.05,0.113,0.113
			c0,0.062-0.051,0.111-0.113,0.111H8.535c-0.063,0-0.113-0.05-0.113-0.111C8.422,6.429,8.472,6.378,8.535,6.378z M8.535,9.518H8.98
			c0.063,0,0.113,0.049,0.113,0.11c0,0.063-0.051,0.112-0.113,0.112H8.535c-0.063,0-0.113-0.05-0.113-0.112
			C8.422,9.566,8.472,9.518,8.535,9.518z M4.724,4.698c0-0.123,0.1-0.224,0.223-0.224h2.466c0.124,0,0.225,0.101,0.225,0.224v1.681
			h0.448c0.062,0,0.111,0.05,0.111,0.113c0,0.062-0.05,0.111-0.111,0.111H7.638v0.561c0,0.024-0.005,0.047-0.012,0.069L8.215,7.76
			C8.263,7.804,8.25,7.883,8.19,7.909L7.968,8.008L8.166,8.46c0.025,0.058-0.001,0.124-0.058,0.148
			c-0.014,0.007-0.029,0.01-0.045,0.01c-0.043,0-0.083-0.024-0.102-0.067L7.762,8.098L7.539,8.195
			c-0.06,0.027-0.127-0.018-0.126-0.083l0.009-0.724c-0.003,0-0.007,0-0.009,0H6.853c0,0.063-0.05,0.112-0.112,0.112
			S6.628,7.45,6.628,7.388H4.947c-0.123,0-0.223-0.101-0.223-0.224V4.698L4.724,4.698z M2.706,4.698
			c0-0.123,0.101-0.224,0.224-0.224h0.672c0.125,0,0.225,0.101,0.225,0.224v4.93c0,0.124-0.1,0.226-0.225,0.226H2.93
			c-0.123,0-0.224-0.102-0.224-0.226V4.698z"/>
	</g>
	<path fill="#BEC8DC" d="M1.585,11.872c0,0.246,0.2,0.445,0.448,0.445h4.259h3.586h4.258c0.248,0,0.449-0.199,0.449-0.445v-0.898
		h-13V11.872z M8.085,11.312c0.186,0,0.337,0.149,0.337,0.334c0,0.188-0.151,0.337-0.337,0.337S7.75,11.833,7.75,11.646
		C7.75,11.461,7.899,11.312,8.085,11.312z"/>
	<polygon fill="#AFBBD0" points="6.096,13.889 10.074,13.889 9.934,12.768 6.236,12.768 	"/>
	<path fill="#BEC8DC" d="M6.068,13.889c-0.125,0-0.225,0.1-0.225,0.223s0.1,0.224,0.225,0.224h4.033
		c0.123,0,0.225-0.101,0.225-0.224s-0.102-0.223-0.225-0.223h-0.027H6.096H6.068z"/>
	<g>
		<polygon fill="#96A5B9" points="6.236,12.768 9.934,12.768 9.879,12.317 6.292,12.317 		"/>
		<circle fill="#96A5B9" cx="8.085" cy="11.647" r="0.336"/>
	</g>
	<path fill="#BEC8DC" d="M2.93,9.854h0.672c0.125,0,0.225-0.102,0.225-0.226v-4.93c0-0.123-0.1-0.224-0.225-0.224H2.93
		c-0.123,0-0.224,0.101-0.224,0.224v4.93C2.706,9.752,2.807,9.854,2.93,9.854z M3.155,4.922h0.224c0.124,0,0.224,0.1,0.224,0.224
		c0,0.124-0.1,0.224-0.224,0.224H3.155c-0.125,0-0.225-0.1-0.225-0.224C2.93,5.022,3.03,4.922,3.155,4.922z M3.155,5.595h0.224
		c0.124,0,0.224,0.1,0.224,0.225c0,0.123-0.1,0.223-0.224,0.223H3.155c-0.125,0-0.225-0.1-0.225-0.223
		C2.93,5.695,3.03,5.595,3.155,5.595z M3.155,6.267h0.224c0.124,0,0.224,0.1,0.224,0.225c0,0.123-0.1,0.223-0.224,0.223H3.155
		c-0.125,0-0.225-0.1-0.225-0.223C2.93,6.367,3.03,6.267,3.155,6.267z M3.155,6.939h0.224c0.124,0,0.224,0.1,0.224,0.225
		c0,0.123-0.1,0.224-0.224,0.224H3.155c-0.125,0-0.225-0.101-0.225-0.224C2.93,7.04,3.03,6.939,3.155,6.939z M3.155,7.612h0.224
		c0.124,0,0.224,0.1,0.224,0.225c0,0.123-0.1,0.224-0.224,0.224H3.155c-0.125,0-0.225-0.101-0.225-0.224
		C2.93,7.712,3.03,7.612,3.155,7.612z M2.93,8.733c0-0.124,0.1-0.226,0.225-0.226h0.224c0.124,0,0.224,0.102,0.224,0.226v0.447
		c0,0.124-0.1,0.225-0.224,0.225H3.155c-0.125,0-0.225-0.101-0.225-0.225V8.733z"/>
	<path fill="#E4EAF6" d="M3.155,5.37h0.224c0.124,0,0.224-0.1,0.224-0.224c0-0.124-0.1-0.224-0.224-0.224H3.155
		c-0.125,0-0.225,0.1-0.225,0.224C2.93,5.27,3.03,5.37,3.155,5.37z"/>
	<path fill="#96A5B9" d="M3.155,6.042h0.224c0.124,0,0.224-0.1,0.224-0.223c0-0.125-0.1-0.225-0.224-0.225H3.155
		c-0.125,0-0.225,0.1-0.225,0.225C2.93,5.942,3.03,6.042,3.155,6.042z"/>
	<g>
		<path fill="#E4EAF6" d="M3.155,6.715h0.224c0.124,0,0.224-0.1,0.224-0.223c0-0.125-0.1-0.225-0.224-0.225H3.155
			c-0.125,0-0.225,0.1-0.225,0.225C2.93,6.615,3.03,6.715,3.155,6.715z"/>
		<path fill="#E4EAF6" d="M3.155,7.388h0.224c0.124,0,0.224-0.101,0.224-0.224c0-0.125-0.1-0.225-0.224-0.225H3.155
			c-0.125,0-0.225,0.1-0.225,0.225C2.93,7.287,3.03,7.388,3.155,7.388z"/>
		<path fill="#E4EAF6" d="M3.155,8.061h0.224c0.124,0,0.224-0.101,0.224-0.224c0-0.125-0.1-0.225-0.224-0.225H3.155
			c-0.125,0-0.225,0.1-0.225,0.225C2.93,7.959,3.03,8.061,3.155,8.061z"/>
	</g>
	<path fill="#96A5B9" d="M3.155,9.405h0.224c0.124,0,0.224-0.101,0.224-0.225V8.733c0-0.124-0.1-0.226-0.224-0.226H3.155
		c-0.125,0-0.225,0.102-0.225,0.226v0.447C2.93,9.305,3.03,9.405,3.155,9.405z"/>
	<g>
		<path fill="#BEC8DC" d="M13.465,4.698c0-0.123-0.102-0.224-0.225-0.224h-2.016c-0.125,0-0.227,0.101-0.227,0.224v1.345h2.467
			V4.698L13.465,4.698z M13.129,5.819H12.23h-0.223h-0.672c-0.063,0-0.111-0.051-0.111-0.113c0-0.062,0.049-0.111,0.111-0.111h0.672
			h0.223h0.898c0.063,0,0.111,0.05,0.111,0.111C13.24,5.769,13.191,5.819,13.129,5.819z M13.129,5.37h-0.225H12.68h-1.344
			c-0.063,0-0.111-0.05-0.111-0.112c0-0.062,0.049-0.112,0.111-0.112h1.344h0.225h0.225c0.063,0,0.111,0.05,0.111,0.112
			C13.24,5.32,13.191,5.37,13.129,5.37z M13.129,4.922h-1.344h-0.227h-0.223c-0.063,0-0.111-0.05-0.111-0.112
			c0-0.062,0.049-0.112,0.111-0.112h0.223h0.227h1.344c0.063,0,0.111,0.05,0.111,0.112C13.24,4.873,13.191,4.922,13.129,4.922z"/>
		<path fill="#BEC8DC" d="M11.225,9.854h2.016c0.123,0,0.225-0.102,0.225-0.226V7.612h-2.467v2.016
			C10.998,9.752,11.1,9.854,11.225,9.854z M12.23,7.836h0.898c0.063,0,0.111,0.05,0.111,0.111c0,0.062-0.049,0.113-0.111,0.113
			H12.23c-0.061,0-0.111-0.051-0.111-0.113C12.119,7.886,12.17,7.836,12.23,7.836z M12.23,8.284h0.898
			c0.063,0,0.111,0.05,0.111,0.112c0,0.062-0.049,0.112-0.111,0.112H12.23c-0.061,0-0.111-0.05-0.111-0.112
			C12.119,8.334,12.17,8.284,12.23,8.284z M12.23,8.733h0.898c0.063,0,0.111,0.05,0.111,0.111s-0.049,0.111-0.111,0.111H12.23
			c-0.061,0-0.111-0.05-0.111-0.111S12.17,8.733,12.23,8.733z M12.23,9.181h0.898c0.063,0,0.111,0.051,0.111,0.113
			c0,0.062-0.049,0.111-0.111,0.111H12.23c-0.061,0-0.111-0.05-0.111-0.111C12.119,9.231,12.17,9.181,12.23,9.181z M11.785,7.836
			L11.785,7.836c0.061,0,0.111,0.05,0.111,0.111c0,0.062-0.051,0.113-0.111,0.113l0,0c-0.063,0-0.113-0.051-0.113-0.113
			C11.672,7.886,11.723,7.836,11.785,7.836z M11.785,8.284L11.785,8.284c0.061,0,0.111,0.05,0.111,0.112
			c0,0.062-0.051,0.112-0.111,0.112l0,0c-0.063,0-0.113-0.05-0.113-0.112C11.672,8.334,11.723,8.284,11.785,8.284z M11.785,8.733
			L11.785,8.733c0.061,0,0.111,0.05,0.111,0.111s-0.051,0.111-0.111,0.111l0,0c-0.063,0-0.113-0.05-0.113-0.111
			S11.723,8.733,11.785,8.733z M11.785,9.181L11.785,9.181c0.061,0,0.111,0.051,0.111,0.113c0,0.062-0.051,0.111-0.111,0.111l0,0
			c-0.063,0-0.113-0.05-0.113-0.111C11.672,9.231,11.723,9.181,11.785,9.181z M11.336,7.836L11.336,7.836
			c0.061,0,0.111,0.05,0.111,0.111c0,0.062-0.051,0.113-0.111,0.113l0,0c-0.063,0-0.111-0.051-0.111-0.113
			C11.225,7.886,11.273,7.836,11.336,7.836z M11.336,8.284L11.336,8.284c0.061,0,0.111,0.05,0.111,0.112
			c0,0.062-0.051,0.112-0.111,0.112l0,0c-0.063,0-0.111-0.05-0.111-0.112C11.225,8.334,11.273,8.284,11.336,8.284z M11.336,8.733
			L11.336,8.733c0.061,0,0.111,0.05,0.111,0.111s-0.051,0.111-0.111,0.111l0,0c-0.063,0-0.111-0.05-0.111-0.111
			S11.273,8.733,11.336,8.733z M11.336,9.181L11.336,9.181c0.061,0,0.111,0.051,0.111,0.113c0,0.062-0.051,0.111-0.111,0.111l0,0
			c-0.063,0-0.111-0.05-0.111-0.111C11.225,9.231,11.273,9.181,11.336,9.181z"/>
	</g>
	<g>
		<path fill="#96A5B9" d="M13.465,6.042h-2.467v1.569h2.467V6.042z M11.559,7.388h-0.223c-0.063,0-0.111-0.051-0.111-0.112
			s0.049-0.111,0.111-0.111h0.223c0.063,0,0.113,0.05,0.113,0.111S11.621,7.388,11.559,7.388z M11.559,6.939h-0.223
			c-0.063,0-0.111-0.05-0.111-0.112c0-0.063,0.049-0.113,0.111-0.113h0.223c0.063,0,0.113,0.05,0.113,0.113
			C11.672,6.889,11.621,6.939,11.559,6.939z M11.559,6.492h-0.223c-0.063,0-0.111-0.05-0.111-0.113c0-0.062,0.049-0.111,0.111-0.111
			h0.223c0.063,0,0.113,0.05,0.113,0.111C11.672,6.441,11.621,6.492,11.559,6.492z M13.129,7.388h-1.121
			c-0.061,0-0.111-0.051-0.111-0.112s0.051-0.111,0.111-0.111h1.121c0.063,0,0.111,0.05,0.111,0.111S13.191,7.388,13.129,7.388z
			 M13.129,6.939h-1.121c-0.061,0-0.111-0.05-0.111-0.112c0-0.063,0.051-0.113,0.111-0.113h1.121c0.063,0,0.111,0.05,0.111,0.113
			C13.24,6.889,13.191,6.939,13.129,6.939z M13.129,6.492h-1.121c-0.061,0-0.111-0.05-0.111-0.113c0-0.062,0.051-0.111,0.111-0.111
			h1.121c0.063,0,0.111,0.05,0.111,0.111C13.24,6.441,13.191,6.492,13.129,6.492z"/>
		<path fill="#96A5B9" d="M13.129,4.698h-1.344c0.061,0,0.111,0.05,0.111,0.112c0,0.063-0.051,0.112-0.111,0.112h1.344
			c0.063,0,0.111-0.05,0.111-0.112C13.24,4.748,13.191,4.698,13.129,4.698z"/>
		<path fill="#96A5B9" d="M11.447,4.81c0-0.062,0.049-0.112,0.111-0.112h-0.223c-0.063,0-0.111,0.05-0.111,0.112
			c0,0.063,0.049,0.112,0.111,0.112h0.223C11.496,4.922,11.447,4.873,11.447,4.81z"/>
		<path fill="#96A5B9" d="M13.129,5.595H12.23c0.063,0,0.113,0.05,0.113,0.111c0,0.063-0.051,0.113-0.113,0.113h0.898
			c0.063,0,0.111-0.051,0.111-0.113C13.24,5.645,13.191,5.595,13.129,5.595z"/>
		<path fill="#96A5B9" d="M11.896,5.706c0-0.062,0.051-0.111,0.111-0.111h-0.672c-0.063,0-0.111,0.05-0.111,0.111
			c0,0.063,0.049,0.113,0.111,0.113h0.672C11.947,5.819,11.896,5.769,11.896,5.706z"/>
	</g>
	<path fill="#BEC8DC" d="M13.129,6.267h-1.121c-0.061,0-0.111,0.05-0.111,0.111c0,0.063,0.051,0.113,0.111,0.113h1.121
		c0.063,0,0.111-0.05,0.111-0.113C13.24,6.317,13.191,6.267,13.129,6.267z"/>
	<g>
		<path fill="#96A5B9" d="M12.568,5.259c0-0.062,0.051-0.112,0.111-0.112h-1.344c-0.063,0-0.111,0.051-0.111,0.112
			s0.049,0.111,0.111,0.111h1.344C12.619,5.37,12.568,5.32,12.568,5.259z"/>
		<path fill="#96A5B9" d="M13.129,5.146h-0.225c0.063,0,0.113,0.051,0.113,0.112S12.967,5.37,12.904,5.37h0.225
			c0.063,0,0.111-0.05,0.111-0.111S13.191,5.146,13.129,5.146z"/>
	</g>
	<g>
		<path fill="#E4EAF6" d="M11.896,4.81c0-0.062-0.051-0.112-0.111-0.112h-0.227c-0.063,0-0.111,0.05-0.111,0.112
			c0,0.063,0.049,0.112,0.111,0.112h0.227C11.846,4.922,11.896,4.873,11.896,4.81z"/>
		<path fill="#E4EAF6" d="M12.344,5.706c0-0.062-0.051-0.111-0.113-0.111h-0.223c-0.061,0-0.111,0.05-0.111,0.111
			c0,0.063,0.051,0.113,0.111,0.113h0.223C12.293,5.819,12.344,5.769,12.344,5.706z"/>
		<path fill="#E4EAF6" d="M11.559,6.267h-0.223c-0.063,0-0.111,0.05-0.111,0.111c0,0.063,0.049,0.113,0.111,0.113h0.223
			c0.063,0,0.113-0.05,0.113-0.113C11.672,6.317,11.621,6.267,11.559,6.267z"/>
	</g>
	<path fill="#BEC8DC" d="M13.129,6.715h-1.121c-0.061,0-0.111,0.05-0.111,0.113c0,0.062,0.051,0.112,0.111,0.112h1.121
		c0.063,0,0.111-0.05,0.111-0.112C13.24,6.765,13.191,6.715,13.129,6.715z"/>
	<path fill="#E4EAF6" d="M11.559,6.715h-0.223c-0.063,0-0.111,0.05-0.111,0.113c0,0.062,0.049,0.112,0.111,0.112h0.223
		c0.063,0,0.113-0.05,0.113-0.112C11.672,6.765,11.621,6.715,11.559,6.715z"/>
	<path fill="#BEC8DC" d="M13.129,7.164h-1.121c-0.061,0-0.111,0.05-0.111,0.111s0.051,0.112,0.111,0.112h1.121
		c0.063,0,0.111-0.051,0.111-0.112S13.191,7.164,13.129,7.164z"/>
	<g>
		<path fill="#E4EAF6" d="M11.559,7.164h-0.223c-0.063,0-0.111,0.05-0.111,0.111s0.049,0.112,0.111,0.112h0.223
			c0.063,0,0.113-0.051,0.113-0.112S11.621,7.164,11.559,7.164z"/>
		<path fill="#E4EAF6" d="M11.336,8.509L11.336,8.509c0.061,0,0.111-0.05,0.111-0.112c0-0.063-0.051-0.112-0.111-0.112l0,0
			c-0.063,0-0.111,0.05-0.111,0.112C11.225,8.458,11.273,8.509,11.336,8.509z"/>
		<path fill="#E4EAF6" d="M11.336,8.061L11.336,8.061c0.061,0,0.111-0.051,0.111-0.113c0-0.062-0.051-0.111-0.111-0.111l0,0
			c-0.063,0-0.111,0.05-0.111,0.111C11.225,8.01,11.273,8.061,11.336,8.061z"/>
		<path fill="#E4EAF6" d="M11.336,9.405L11.336,9.405c0.061,0,0.111-0.05,0.111-0.111c0-0.063-0.051-0.113-0.111-0.113l0,0
			c-0.063,0-0.111,0.051-0.111,0.113C11.225,9.355,11.273,9.405,11.336,9.405z"/>
		<path fill="#E4EAF6" d="M11.336,8.956L11.336,8.956c0.061,0,0.111-0.05,0.111-0.111s-0.051-0.111-0.111-0.111l0,0
			c-0.063,0-0.111,0.05-0.111,0.111S11.273,8.956,11.336,8.956z"/>
	</g>
	<g>
		<path fill="#96A5B9" d="M11.785,8.509L11.785,8.509c0.061,0,0.111-0.05,0.111-0.112c0-0.063-0.051-0.112-0.111-0.112l0,0
			c-0.063,0-0.113,0.05-0.113,0.112C11.672,8.458,11.723,8.509,11.785,8.509z"/>
		<path fill="#96A5B9" d="M11.785,8.061L11.785,8.061c0.061,0,0.111-0.051,0.111-0.113c0-0.062-0.051-0.111-0.111-0.111l0,0
			c-0.063,0-0.113,0.05-0.113,0.111C11.672,8.01,11.723,8.061,11.785,8.061z"/>
		<path fill="#96A5B9" d="M11.785,9.405L11.785,9.405c0.061,0,0.111-0.05,0.111-0.111c0-0.063-0.051-0.113-0.111-0.113l0,0
			c-0.063,0-0.113,0.051-0.113,0.113C11.672,9.355,11.723,9.405,11.785,9.405z"/>
		<path fill="#96A5B9" d="M11.785,8.956L11.785,8.956c0.061,0,0.111-0.05,0.111-0.111s-0.051-0.111-0.111-0.111l0,0
			c-0.063,0-0.113,0.05-0.113,0.111S11.723,8.956,11.785,8.956z"/>
		<path fill="#96A5B9" d="M12.23,8.509h0.898c0.063,0,0.111-0.05,0.111-0.112c0-0.063-0.049-0.112-0.111-0.112H12.23
			c-0.061,0-0.111,0.05-0.111,0.112C12.119,8.458,12.17,8.509,12.23,8.509z"/>
		<path fill="#96A5B9" d="M12.23,8.061h0.898c0.063,0,0.111-0.051,0.111-0.113c0-0.062-0.049-0.111-0.111-0.111H12.23
			c-0.061,0-0.111,0.05-0.111,0.111C12.119,8.01,12.17,8.061,12.23,8.061z"/>
		<path fill="#96A5B9" d="M12.23,9.405h0.898c0.063,0,0.111-0.05,0.111-0.111c0-0.063-0.049-0.113-0.111-0.113H12.23
			c-0.061,0-0.111,0.051-0.111,0.113C12.119,9.355,12.17,9.405,12.23,9.405z"/>
		<path fill="#96A5B9" d="M12.23,8.956h0.898c0.063,0,0.111-0.05,0.111-0.111s-0.049-0.111-0.111-0.111H12.23
			c-0.061,0-0.111,0.05-0.111,0.111S12.17,8.956,12.23,8.956z"/>
	</g>
	<path fill="#E4EAF6" d="M13.018,5.259c0-0.062-0.051-0.112-0.113-0.112H12.68c-0.061,0-0.111,0.051-0.111,0.112
		S12.619,5.37,12.68,5.37h0.225C12.967,5.37,13.018,5.32,13.018,5.259z"/>
	<path fill="#FF6469" d="M4.947,7.388h1.682V6.939H5.171V4.922h2.017v1.456c0.062,0,0.113,0.05,0.113,0.113
		c0,0.062-0.051,0.111-0.113,0.111v0.336H6.853v0.448h0.561c0.002,0,0.006,0,0.009,0l0.001-0.135
		c0.001-0.078,0.093-0.118,0.151-0.066l0.051,0.047c0.007-0.022,0.012-0.045,0.012-0.069V6.603c-0.063,0-0.113-0.05-0.113-0.111
		c0-0.063,0.05-0.113,0.113-0.113V4.698c0-0.123-0.101-0.224-0.225-0.224H4.947c-0.123,0-0.223,0.101-0.223,0.224v2.466
		C4.724,7.287,4.824,7.388,4.947,7.388z"/>
	<g>
		<path fill="#96A5B9" d="M6.741,8.396c0.062,0,0.112-0.051,0.112-0.112V7.836c0-0.062-0.05-0.113-0.112-0.113
			S6.628,7.774,6.628,7.836v0.448C6.628,8.346,6.679,8.396,6.741,8.396z"/>
		<path fill="#96A5B9" d="M9.43,9.74h0.449c0.063,0,0.111-0.05,0.111-0.112c0-0.062-0.049-0.11-0.111-0.11H9.43
			c-0.061,0-0.111,0.049-0.111,0.11C9.318,9.69,9.369,9.74,9.43,9.74z"/>
		<path fill="#96A5B9" d="M9.879,8.621c-0.061,0-0.111,0.049-0.111,0.112v0.447c0,0.063,0.051,0.113,0.111,0.113
			c0.063,0,0.111-0.051,0.111-0.113V8.733C9.99,8.67,9.941,8.621,9.879,8.621z"/>
		<path fill="#96A5B9" d="M9.43,6.603h0.449c0.063,0,0.111-0.05,0.111-0.111c0-0.063-0.049-0.113-0.111-0.113H9.43
			c-0.061,0-0.111,0.05-0.111,0.113C9.318,6.553,9.369,6.603,9.43,6.603z"/>
		<path fill="#96A5B9" d="M9.879,6.828c-0.061,0-0.111,0.05-0.111,0.112v0.448C9.768,7.45,9.818,7.5,9.879,7.5
			c0.063,0,0.111-0.05,0.111-0.112V6.939C9.99,6.878,9.941,6.828,9.879,6.828z"/>
		<path fill="#96A5B9" d="M8.085,9.518H7.638c-0.063,0-0.113,0.049-0.113,0.11c0,0.063,0.05,0.112,0.113,0.112h0.448
			c0.062,0,0.111-0.05,0.111-0.112C8.197,9.566,8.147,9.518,8.085,9.518z"/>
		<path fill="#96A5B9" d="M6.741,6.828c-0.062,0-0.112,0.05-0.112,0.112v0.448C6.628,7.45,6.679,7.5,6.741,7.5
			s0.112-0.05,0.112-0.112V6.939C6.853,6.878,6.802,6.828,6.741,6.828z"/>
		<path fill="#96A5B9" d="M7.188,9.518H6.741c-0.062,0-0.112,0.049-0.112,0.11c0,0.063,0.051,0.112,0.112,0.112h0.448
			c0.062,0,0.113-0.05,0.113-0.112C7.301,9.566,7.25,9.518,7.188,9.518z"/>
		<path fill="#96A5B9" d="M6.628,9.181c0,0.063,0.051,0.113,0.112,0.113s0.112-0.051,0.112-0.113V8.733
			c0-0.063-0.05-0.112-0.112-0.112S6.628,8.67,6.628,8.733V9.181z"/>
		<path fill="#96A5B9" d="M9.879,7.724c-0.061,0-0.111,0.051-0.111,0.113v0.448c0,0.062,0.051,0.112,0.111,0.112
			c0.063,0,0.111-0.051,0.111-0.112V7.836C9.99,7.774,9.941,7.724,9.879,7.724z"/>
		<path fill="#96A5B9" d="M8.535,6.603H8.98c0.063,0,0.113-0.05,0.113-0.111c0-0.063-0.051-0.113-0.113-0.113H8.535
			c-0.063,0-0.113,0.05-0.113,0.113C8.422,6.553,8.472,6.603,8.535,6.603z"/>
		<path fill="#96A5B9" d="M6.628,6.492c0,0.062,0.051,0.111,0.112,0.111h0.448c0.062,0,0.113-0.05,0.113-0.111
			c0-0.063-0.051-0.113-0.113-0.113H6.741C6.679,6.378,6.628,6.429,6.628,6.492z"/>
		<path fill="#96A5B9" d="M8.535,9.74H8.98c0.063,0,0.113-0.05,0.113-0.112c0-0.062-0.051-0.11-0.113-0.11H8.535
			c-0.063,0-0.113,0.049-0.113,0.11C8.422,9.69,8.472,9.74,8.535,9.74z"/>
		<path fill="#96A5B9" d="M7.525,6.492c0,0.062,0.05,0.111,0.113,0.111h0.448c0.062,0,0.111-0.05,0.111-0.111
			c0-0.063-0.05-0.113-0.111-0.113H7.638C7.575,6.378,7.525,6.429,7.525,6.492z"/>
	</g>
	<path fill="#464655" d="M7.424,7.253L7.422,7.388L7.413,8.111c-0.001,0.066,0.066,0.11,0.126,0.083l0.223-0.097l0.199,0.453
		C7.98,8.594,8.021,8.618,8.063,8.618c0.016,0,0.031-0.003,0.045-0.01C8.165,8.584,8.191,8.518,8.166,8.46L7.968,8.008L8.19,7.909
		C8.25,7.883,8.263,7.804,8.214,7.76L7.625,7.233L7.575,7.187C7.517,7.135,7.425,7.175,7.424,7.253z"/>
</g>
</svg>
